<svg id="Layer_1" data-name="Layer 1" xmlns="http://www.w3.org/2000/svg" viewBox="0 0 512 512"><defs><style>.cls-1{fill:#483493;}.cls-2{fill:#fff;}</style></defs><path class="cls-1" d="M322.68.52,26.55.36A26.45,26.45,0,0,0,.1,26.81L0,485.61A26.44,26.44,0,0,0,26.39,512l296,.17c104.33.06,189-84.5,189-188.83l.08-133.74C511.57,85.24,427,.58,322.68.52"/><path class="cls-2" d="M177.71,154.79c0,7.51-.09,24.59-.09,24.59a66.53,66.53,0,0,1-1.71,8.11,36,36,0,0,1-3.25,7.21A35.18,35.18,0,0,1,157.48,208s-7.09,3.11-22.74,3.13h-1.45a8.42,8.42,0,0,0-.92,0,5,5,0,0,0-1.24.2,3.1,3.1,0,0,0-1,.49,2.84,2.84,0,0,0-.58.68,3.93,3.93,0,0,0-.58,1.36s0,38.72,0,80q0,35.85,0,71.69v18.35a35.27,35.27,0,0,0,.53,3.87,15.61,15.61,0,0,0,1.21,3.52,20.53,20.53,0,0,0,6.33,7.8,16.64,16.64,0,0,0,5.12,2.7,35.76,35.76,0,0,0,5.89,1.11l10.8,0c29.44-.07,47.59,0,70.74.05,28.41.06,113.64,0,85.23.05,0,0,3,0,4.26,0a23.41,23.41,0,0,0,7-1.11,20.17,20.17,0,0,0,11.45-10.5,23.47,23.47,0,0,0,1.73-7.37V365.59c0-103.73,0-119.12,0-149.9v-1.77a3.51,3.51,0,0,0-4.34-2.77c-6.8,0-11.32-.47-11.32-.47a44.92,44.92,0,0,1-8.75-1.41,34.25,34.25,0,0,1-13.69-7.7,37.38,37.38,0,0,1-7.19-9.81,35.38,35.38,0,0,1-1.4-3.41,39.44,39.44,0,0,1-1.19-4.48,31.38,31.38,0,0,1-.79-4.43,22.83,22.83,0,0,1,0-3.53l0-9.09s0-11.94,0-12c-5.58-33.75-9.61-58-10.28-60.65,0,0-.72-2.88.37-4.23a4.22,4.22,0,0,1,.8-.75,3.46,3.46,0,0,1,1.2-.55,7.34,7.34,0,0,1,1-.12h40.11a8.26,8.26,0,0,1,3.58.83,9.82,9.82,0,0,1,3.35,2.85,14.34,14.34,0,0,1,1.78,2.68c2.58,5,19.44,38.12,20.91,41s2.28,4.44,2.41,4.68c1.06,2,4.45,8.14,5.39,10.46.09.21.43,1.07.78,2.12.17.48.28.85.39,1.23.15.53.24.94.27,1.08s.19.83.31,1.7a25.07,25.07,0,0,1,.21,2.59s0,25.92-.05,52.36c0,6.44,0,22.53,0,25.45,0,0,0,49.71.31,119.74l0,27.26s-.39,4.57-.91,7.56a37.53,37.53,0,0,1-2.69,8.71,45.7,45.7,0,0,1-15.21,18.45,50.22,50.22,0,0,1-13.4,6.2c-1.81.5-2.71.65-2.71.65-1.3.22-4.84.69-4.85.69h0s-2.26.1-6.7.13c-11.74.07-101.1-.07-110.34-.07H168.27c-7.13,0-8.67.05-13.46,0-5.89,0-8.83-.06-10.08-.15a43.63,43.63,0,0,1-36.54-26.84,48,48,0,0,1-3-12.23c-.25-2.24-.26-4.95-.29-10.38,0-4.35,0-6.46.09-11,.05-6-.12-10,0-12.34h0s.36-58.73.18-188.18a43.08,43.08,0,0,1,.49-8.95,29.76,29.76,0,0,1,1.49-5.87,36.49,36.49,0,0,1,2.19-4.35c2.12-4.41,5.12-9.62,12.51-24.38h0c7.35-14.67,14.4-28.15,14.4-28.16a22,22,0,0,1,3.1-3.76l.54-.36a8.42,8.42,0,0,1,2.28-1.11,9.3,9.3,0,0,1,2.4-.36H179.6s4.23,0,5.57,0h0a3.8,3.8,0,0,1,2.6,1.64c.88,1.54.2,4,.22,4s0-.09,0-.08-4.66,27.46-4.68,27.61S177.75,154.57,177.71,154.79Z"/><path class="cls-2" d="M270.7,152.71c-.05,28.15-.05,29.77-.05,29.77h0s-.07.63-.07.66a25.63,25.63,0,0,1-1.16,3.67c-.08.22-.2.54-.35.92-.23.58-.57,1.37-1,2.26A45,45,0,0,1,259,202.27a37.54,37.54,0,0,1-24.12,9.8,40.54,40.54,0,0,1-34.35-21.92,23.1,23.1,0,0,1-2.42-7.43q0-.18,0-.27v-.31c0-1.86,0-11.91-.08-29.33,3.53-20.35,6.23-35.91,8-46.38,0-.16,2.43-14,2.45-14.15h0a6.33,6.33,0,0,1,2.08-3.1,4.4,4.4,0,0,1,1.53-.61,3.1,3.1,0,0,1,.73,0l44,0s.69.12,1.11.25a3,3,0,0,1,1.32.69,3.68,3.68,0,0,1,.87,2q1.33,7.64,2.65,15.28Q266.73,129.74,270.7,152.71Z"/><path class="cls-2" d="M309,328.74c-5.55,5.33-32.13,29.69-73.79,30s-68.48-23.46-74.15-28.71a12.36,12.36,0,0,1-3-7.32c0-.74-.22-5.91,3.7-9.24,4.65-3.95,11-1.83,12.15-1.43a14.77,14.77,0,0,1,4.8,2.72c5,4.37,25.18,21.14,55.76,21.16,33.39,0,54.77-20,59-24.11a8.12,8.12,0,0,1,1-.43,12,12,0,0,1,11,1.72c4.77,3.54,5.64,10,4.15,14.16A10.55,10.55,0,0,1,309,328.74Z"/><path class="cls-2" d="M290.7,154.79c0,7.51.09,24.59.09,24.59a66.53,66.53,0,0,0,1.71,8.11,35.75,35.75,0,0,0,3.26,7.21A35.13,35.13,0,0,0,310.93,208s7.1,3.11,22.74,3.13h1.45a8.5,8.5,0,0,1,.93,0,5,5,0,0,1,1.23.2,3,3,0,0,1,1,.49,2.69,2.69,0,0,1,.59.68,4.14,4.14,0,0,1,.58,1.36s0,38.72,0,80q0,35.85,0,71.69v18.35a35.27,35.27,0,0,1-.53,3.87,16.22,16.22,0,0,1-1.2,3.52,20.51,20.51,0,0,1-6.34,7.8,16.56,16.56,0,0,1-5.11,2.7,35.8,35.8,0,0,1-5.9,1.11l-10.8,0c-29.44-.07-47.59,0-70.74.05-28.41.06-113.63,0-85.23.05,0,0-3,0-4.25,0a23.37,23.37,0,0,1-7-1.11,20.16,20.16,0,0,1-8-5.37,19.47,19.47,0,0,1-3.4-5.13,23.19,23.19,0,0,1-1.73-7.37V365.59c0-103.73,0-119.12,0-149.9v-1.77a3.51,3.51,0,0,1,4.33-2.77c6.81,0,11.33-.47,11.33-.47a45,45,0,0,0,8.75-1.41,34.41,34.41,0,0,0,13.69-7.7,37.38,37.38,0,0,0,7.19-9.81c.81-1.71,1.4-3.41,1.4-3.41a37.52,37.52,0,0,0,1.18-4.48,31.63,31.63,0,0,0,.8-4.43,22.47,22.47,0,0,0,0-3.53l0-9.09s.05-11.94.05-12c5.57-33.75,9.6-58,10.27-60.65,0,0,.72-2.88-.37-4.23a3.91,3.91,0,0,0-.8-.75,3.29,3.29,0,0,0-1.2-.55,7.34,7.34,0,0,0-1-.12H144.8a8.32,8.32,0,0,0-3.59.83,9.82,9.82,0,0,0-3.35,2.85,14.09,14.09,0,0,0-1.77,2.68c-2.59,5-19.45,38.12-20.92,41s-2.27,4.44-2.4,4.68c-1.07,2-4.46,8.14-5.4,10.46-.08.21-.42,1.07-.78,2.12-.16.48-.28.85-.38,1.23-.15.53-.25.94-.28,1.08s-.18.83-.3,1.7a20.49,20.49,0,0,0-.21,2.59s0,25.92,0,52.36c0,6.44,0,22.53,0,25.45,0,0,0,49.71-.31,119.74l0,27.26s.38,4.57.9,7.56a37.53,37.53,0,0,0,2.69,8.71A45.61,45.61,0,0,0,124,419.28a50.22,50.22,0,0,0,13.4,6.2c1.8.5,2.7.65,2.7.65,1.3.22,4.84.69,4.85.69h0s2.25.1,6.69.13c11.74.07,101.11-.07,110.34-.07h38.13c7.14,0,8.67.05,13.46,0,5.89,0,8.84-.06,10.09-.15a43.6,43.6,0,0,0,36.53-26.84,48.59,48.59,0,0,0,3-12.23c.25-2.24.26-4.95.28-10.38,0-4.35,0-6.46-.08-11-.06-6,.11-10,0-12.34h0c0-104.59-.68-149.64-.25-167,.18-7-.27-14.12.06-21.16a44.54,44.54,0,0,0-.19-6.67,32.31,32.31,0,0,0-1.39-7,28.32,28.32,0,0,0-2.59-5.49c-2.5-4.36-4.62-8.93-6.92-13.39-1.53-3-3.36-6.54-5.58-11h0c-7.36-14.67-14.4-28.15-14.4-28.16a22.52,22.52,0,0,0-3.11-3.76c-.25-.18-.53-.36-.53-.36a8.67,8.67,0,0,0-2.29-1.11,9.25,9.25,0,0,0-2.4-.36H288.81s-4.22,0-5.57,0h0a3.83,3.83,0,0,0-2.6,1.64c-.88,1.54-.2,4-.22,4s0-.09,0-.08,4.65,27.46,4.68,27.61S290.66,154.57,290.7,154.79Z"/></svg>