<svg width="260" height="260" viewBox="0 0 260 260" fill="none" xmlns="http://www.w3.org/2000/svg">
<g clip-path="url(#clip0_410_14)">
<path d="M163.861 0.26405L13.4824 0.1828C9.92013 0.1828 6.50374 1.59792 3.98482 4.11684C1.4659 6.63576 0.0507813 10.0521 0.0507813 13.6144L0 246.599C0.00671105 250.151 1.42077 253.556 3.93253 256.067C6.44428 258.579 9.84902 259.993 13.4012 260L163.714 260.086C216.694 260.117 259.69 217.176 259.69 164.196L259.731 96.2812C259.782 43.2859 216.836 0.294519 163.861 0.26405Z" fill="#483493"/>
<path d="M90.2434 78.6043C90.2434 82.418 90.1977 91.0914 90.1977 91.0914C89.9941 92.4809 89.7041 93.8564 89.3293 95.2098C88.9153 96.4871 88.3618 97.715 87.6789 98.8711C85.8242 101.827 83.1443 104.175 79.9703 105.625C79.9703 105.625 76.3699 107.204 68.4227 107.214H67.6863C67.5307 107.206 67.3748 107.206 67.2191 107.214C67.0058 107.222 66.7942 107.256 66.5895 107.316C66.4066 107.368 66.2345 107.452 66.0816 107.565C65.9659 107.664 65.8664 107.78 65.7871 107.91C65.6461 108.12 65.5462 108.354 65.4926 108.601C65.4926 108.601 65.4926 128.263 65.4926 149.226C65.4926 161.362 65.4926 173.498 65.4926 185.631V194.949C65.5459 195.609 65.6358 196.265 65.7617 196.914C65.8945 197.533 66.1008 198.133 66.3762 198.702C67.1031 200.268 68.2077 201.629 69.5906 202.663C70.3705 203.268 71.2505 203.732 72.1906 204.034C73.1701 204.305 74.1706 204.494 75.1816 204.598H80.666C95.616 204.562 104.833 204.598 116.589 204.623C131.016 204.654 174.296 204.623 159.87 204.648C159.87 204.648 161.393 204.648 162.033 204.648C163.239 204.642 164.438 204.452 165.587 204.085C166.861 203.624 168.031 202.916 169.029 202.001C170.027 201.086 170.833 199.982 171.402 198.753C171.895 197.561 172.192 196.297 172.28 195.01V185.651C172.28 132.976 172.28 125.161 172.28 109.53V108.631C172.237 108.39 172.143 108.16 172.007 107.956C171.87 107.752 171.693 107.579 171.486 107.447C171.279 107.315 171.047 107.227 170.804 107.189C170.562 107.15 170.314 107.163 170.077 107.225C166.623 107.225 164.328 106.986 164.328 106.986C162.827 106.894 161.339 106.654 159.885 106.27C157.296 105.523 154.916 104.184 152.933 102.36C151.452 100.91 150.219 99.2269 149.282 97.3781C149.015 96.8137 148.777 96.2357 148.571 95.6465C148.325 94.9007 148.123 94.141 147.966 93.3715C147.779 92.6322 147.645 91.8804 147.565 91.1219C147.519 90.5252 147.519 89.9259 147.565 89.3293V84.7133C147.565 84.7133 147.565 78.65 147.565 78.6195C144.732 61.4809 142.685 49.1664 142.345 47.8207C142.345 47.8207 141.979 46.3582 142.533 45.6727C142.651 45.5286 142.788 45.4005 142.939 45.2918C143.122 45.1605 143.329 45.0656 143.548 45.0125C143.716 44.9806 143.886 44.9602 144.056 44.9516H164.425C165.055 44.9538 165.676 45.0978 166.243 45.373C166.912 45.7206 167.493 46.2155 167.944 46.8203C168.295 47.2386 168.598 47.6951 168.848 48.1813C170.158 50.7203 178.72 67.5391 179.466 69.0016C180.213 70.4641 180.624 71.2563 180.69 71.3781C181.228 72.3938 182.95 75.5117 183.427 76.6898C183.473 76.7965 183.645 77.2332 183.823 77.7664C183.909 78.0102 183.965 78.198 184.021 78.391C184.097 78.6602 184.143 78.8684 184.158 78.9395C184.173 79.0105 184.255 79.3609 184.316 79.8027C184.374 80.239 184.409 80.678 184.422 81.118C184.422 81.118 184.422 94.2805 184.397 107.707C184.397 110.977 184.397 119.148 184.397 120.631C184.397 120.631 184.397 145.874 184.554 181.436V195.279C184.554 195.279 184.356 197.6 184.092 199.118C183.818 200.643 183.36 202.128 182.726 203.541C181.029 207.295 178.363 210.528 175.002 212.911C172.902 214.29 170.609 215.351 168.198 216.059C167.279 216.313 166.821 216.389 166.821 216.389C166.161 216.501 164.364 216.739 164.359 216.739C164.359 216.739 163.211 216.79 160.956 216.805C154.995 216.841 109.616 216.77 104.924 216.77H85.4496C81.8289 216.77 81.0469 216.795 78.6145 216.77C75.6234 216.77 74.1305 216.739 73.4957 216.694C69.4508 216.34 65.5809 214.882 62.3086 212.478C59.0362 210.075 56.4873 206.818 54.9402 203.064C54.1619 201.07 53.6497 198.982 53.4168 196.854C53.2898 195.716 53.2848 194.34 53.2695 191.582C53.2695 189.373 53.2695 188.302 53.3152 185.996C53.3406 182.95 53.2543 180.918 53.3152 179.73C53.3152 179.73 53.498 149.906 53.4066 84.1699C53.3313 82.6504 53.4147 81.1272 53.6555 79.625C53.8057 78.6082 54.0592 77.6094 54.4121 76.6441C54.7332 75.8839 55.1047 75.1459 55.5242 74.4352C56.6008 72.1957 58.1242 69.55 61.877 62.0547C65.6094 54.6051 69.1895 47.7598 69.1895 47.7547C69.6419 47.0619 70.1698 46.4215 70.7637 45.8453L71.0379 45.6625C71.3932 45.4172 71.7835 45.2272 72.1957 45.0988C72.5922 44.9849 73.002 44.9235 73.4145 44.916H91.2031C91.2031 44.916 93.3512 44.916 94.0316 44.916C94.2976 44.9552 94.5524 45.0495 94.7798 45.193C95.0071 45.3364 95.202 45.5257 95.352 45.7488C95.7988 46.5309 95.4535 47.7801 95.4637 47.7801C95.4738 47.7801 95.4637 47.7344 95.4637 47.7395C95.4637 47.7445 93.0973 61.684 93.0871 61.7602C93.077 61.8363 90.2637 78.4926 90.2434 78.6043Z" fill="white"/>
<path d="M137.465 77.5481C137.439 91.843 137.439 92.6656 137.439 92.6656C137.439 92.6656 137.404 92.9856 137.404 93.0008C137.254 93.6359 137.058 94.2589 136.815 94.8645C136.774 94.9762 136.713 95.1387 136.637 95.3316C136.52 95.6262 136.348 96.0274 136.129 96.4793C134.96 98.8051 133.403 100.914 131.523 102.715C128.165 105.782 123.821 107.547 119.275 107.692C115.644 107.541 112.117 106.432 109.053 104.477C105.989 102.522 103.498 99.7906 101.832 96.5605C101.211 95.3818 100.795 94.1058 100.603 92.7875C100.603 92.7266 100.603 92.6809 100.603 92.6504V92.493C100.603 91.5484 100.603 86.4449 100.562 77.5988C102.355 67.2648 103.726 59.3633 104.625 54.0465C104.625 53.9652 105.858 46.9371 105.869 46.8609C106.054 46.2419 106.423 45.6933 106.925 45.2867C107.162 45.1355 107.426 45.0304 107.702 44.977C107.825 44.9624 107.949 44.9624 108.073 44.977H130.416C130.416 44.977 130.767 45.0379 130.98 45.1039C131.229 45.1625 131.46 45.283 131.65 45.4543C131.897 45.7404 132.051 46.0945 132.092 46.4699C132.542 49.0564 132.991 51.6428 133.438 54.2293C134.778 61.9988 136.121 69.7718 137.465 77.5481Z" fill="white"/>
<path d="M156.914 166.938C154.096 169.645 140.598 182.015 119.443 182.173C98.2871 182.33 84.6675 170.259 81.7882 167.593C80.8869 166.555 80.3517 165.249 80.2648 163.876C80.2648 163.5 80.1531 160.875 82.1437 159.184C84.505 157.178 87.7297 158.255 88.3136 158.458C89.2057 158.761 90.0326 159.23 90.7511 159.839C93.2902 162.058 103.538 170.574 119.067 170.584C136.023 170.584 146.88 160.428 149.028 158.341C149.192 158.257 149.362 158.184 149.536 158.123C150.468 157.806 151.463 157.72 152.436 157.872C153.409 158.024 154.33 158.41 155.121 158.996C157.544 160.794 157.986 164.074 157.229 166.187C157.143 166.445 157.038 166.696 156.914 166.938V166.938Z" fill="white"/>
<path d="M147.621 78.6043C147.621 82.418 147.667 91.0914 147.667 91.0914C147.87 92.4809 148.16 93.8564 148.535 95.2098C148.95 96.4877 149.505 97.7157 150.19 98.8711C152.043 101.827 154.721 104.175 157.894 105.625C157.894 105.625 161.499 107.204 169.442 107.214H170.178C170.335 107.206 170.493 107.206 170.65 107.214C170.862 107.222 171.072 107.256 171.275 107.316C171.458 107.367 171.63 107.451 171.783 107.565C171.901 107.662 172.002 107.779 172.082 107.91C172.221 108.121 172.321 108.355 172.377 108.601C172.377 108.601 172.377 128.263 172.377 149.226C172.377 161.363 172.377 173.498 172.377 185.631V194.949C172.323 195.609 172.234 196.265 172.108 196.914C171.974 197.532 171.769 198.131 171.498 198.702C170.77 200.269 169.664 201.63 168.279 202.663C167.501 203.269 166.622 203.733 165.684 204.034C164.703 204.305 163.7 204.494 162.688 204.598H157.203C142.253 204.562 133.037 204.598 121.281 204.623C106.854 204.654 63.5779 204.623 77.9998 204.648C77.9998 204.648 76.4764 204.648 75.8416 204.648C74.6349 204.642 73.4363 204.452 72.2869 204.085C70.7322 203.518 69.3383 202.582 68.2244 201.358C67.5144 200.586 66.9316 199.707 66.4978 198.753C66.002 197.562 65.7052 196.297 65.6193 195.01V185.651C65.6193 132.976 65.6193 125.161 65.6193 109.53V108.631C65.6632 108.39 65.7563 108.161 65.8927 107.958C66.0292 107.754 66.2061 107.581 66.4124 107.449C66.6187 107.317 66.85 107.229 67.0919 107.19C67.3338 107.152 67.581 107.163 67.8182 107.225C71.2764 107.225 73.5717 106.986 73.5717 106.986C75.0728 106.894 76.5611 106.654 78.015 106.27C80.6028 105.52 82.9821 104.182 84.967 102.36C86.4479 100.91 87.6812 99.2269 88.6182 97.3781C89.0295 96.5098 89.3291 95.6465 89.3291 95.6465C89.5755 94.9012 89.7756 94.1415 89.9283 93.3715C90.117 92.6322 90.2527 91.8805 90.3346 91.1219C90.3816 90.5253 90.3816 89.9259 90.3346 89.3293V84.7133C90.3346 84.7133 90.36 78.65 90.36 78.6196C93.1885 61.4809 95.235 49.1664 95.5752 47.8207C95.5752 47.8207 95.9408 46.3582 95.3873 45.6727C95.2704 45.5273 95.1337 45.3991 94.981 45.2918C94.7989 45.1585 94.5916 45.0635 94.3717 45.0125C94.204 44.9806 94.0343 44.9602 93.8639 44.9516H73.5311C72.8995 44.9541 72.2766 45.0981 71.708 45.3731C71.0388 45.7207 70.4572 46.2155 70.0068 46.8203C69.6563 47.2382 69.3548 47.6948 69.108 48.1813C67.7928 50.7203 59.2311 67.5391 58.4846 69.0016C57.7381 70.4641 57.3318 71.2563 57.2658 71.3781C56.7225 72.3938 55.001 75.5117 54.5236 76.6899C54.483 76.7965 54.3103 77.2332 54.1275 77.7664C54.0463 78.0102 53.9854 78.1981 53.9346 78.391C53.8584 78.6602 53.8076 78.8684 53.7924 78.9395C53.7771 79.0106 53.701 79.361 53.64 79.8028C53.5767 80.2385 53.5411 80.6778 53.5334 81.118C53.5334 81.118 53.5334 94.2805 53.5334 107.707C53.5334 110.977 53.5334 119.148 53.5334 120.631C53.5334 120.631 53.5334 145.874 53.376 181.436V195.279C53.376 195.279 53.5689 197.6 53.833 199.118C54.1069 200.643 54.5657 202.128 55.199 203.541C56.9065 207.303 59.5891 210.54 62.9686 212.916C65.0693 214.295 67.3623 215.356 69.7732 216.064C70.6873 216.318 71.1443 216.394 71.1443 216.394C71.8045 216.506 73.6021 216.745 73.6072 216.745C73.6072 216.745 74.7498 216.795 77.0045 216.811C82.9662 216.846 128.349 216.775 133.037 216.775H152.399C156.025 216.775 156.802 216.8 159.235 216.775C162.226 216.775 163.724 216.745 164.358 216.699C168.403 216.346 172.272 214.888 175.544 212.484C178.816 210.08 181.364 206.823 182.909 203.069C183.684 201.074 184.196 198.986 184.432 196.859C184.559 195.721 184.564 194.345 184.574 191.588C184.574 189.379 184.574 188.307 184.534 186.002C184.503 182.955 184.59 180.923 184.534 179.735C184.534 126.623 184.188 103.746 184.407 94.9305C184.498 91.3758 184.27 87.7602 184.437 84.1852C184.49 83.0553 184.458 81.9231 184.341 80.7981C184.238 79.5907 184.001 78.3986 183.635 77.2434C183.298 76.2696 182.857 75.335 182.32 74.4555C181.05 72.2414 179.974 69.9207 178.806 67.6559C178.029 66.1324 177.099 64.3348 175.972 62.0699C172.235 54.6203 168.66 47.775 168.66 47.7699C168.204 47.0782 167.674 46.4379 167.08 45.8606C166.953 45.7692 166.811 45.6778 166.811 45.6778C166.453 45.4337 166.061 45.2438 165.648 45.1141C165.252 44.9999 164.842 44.9384 164.429 44.9313H146.661C146.661 44.9313 144.518 44.9313 143.833 44.9313C143.567 44.9714 143.312 45.0661 143.085 45.2094C142.858 45.3527 142.663 45.5416 142.512 45.7641C142.065 46.5461 142.411 47.7953 142.401 47.7953C142.39 47.7953 142.401 47.7496 142.401 47.7547C142.401 47.7598 144.762 61.6992 144.777 61.7754C144.792 61.8516 147.601 78.4926 147.621 78.6043Z" fill="white"/>
</g>
<defs>
<clipPath id="clip0_410_14">
<rect width="260" height="260" fill="white"/>
</clipPath>
</defs>
</svg>
