<svg id="Layer_1" data-name="Layer 1" xmlns="http://www.w3.org/2000/svg" viewBox="0 0 1715 512"><defs><style>.cls-1{fill:#483493;}.cls-2{fill:#fff;}</style></defs><path class="cls-1" d="M323.21.74,27.08.57A26.48,26.48,0,0,0,.62,27L.51,485.83a26.44,26.44,0,0,0,26.41,26.38l296,.17c104.33,0,189-84.5,189-188.83L512,189.81C512.1,85.46,427.54.8,323.21.74"/><path class="cls-1" d="M815.67,79.32H779.56A10.58,10.58,0,0,0,769,89.9v75.32H676.12a79.87,79.87,0,0,0-15.56,1.52,82.9,82.9,0,0,0-63.34,80.54v64.1a82.86,82.86,0,0,0,82.86,82.86H735.7a10.5,10.5,0,0,0,6.25-2,9.44,9.44,0,0,0,1.24-1.05l0,0L769,365.24v18.43a10.61,10.61,0,0,0,10.58,10.57h35.24a11.89,11.89,0,0,0,11.26-8,8.67,8.67,0,0,0,.17-1.78V89.9a10.58,10.58,0,0,0-10.58-10.58M769,337H679a24.52,24.52,0,0,1-24.53-24.51V247A24.53,24.53,0,0,1,679,222.46h90Z"/><path class="cls-1" d="M1158.35,165.38H1123.1A10.58,10.58,0,0,0,1112.52,176v17.88l-.17-.21-25.15-25.16a12.18,12.18,0,0,0-7.47-3.09h-56.12a82.83,82.83,0,0,0-82.84,82.85v64.12a82.9,82.9,0,0,0,63.33,80.54,80.7,80.7,0,0,0,15.58,1.53h92.84v1.37a27,27,0,0,1-3.08,13,27.47,27.47,0,0,1-24.12,14.31h-70.51c-14.86,0-22.4,17.91-11.95,28.46l22.61,23.07a16.76,16.76,0,0,0,12,5h48.09a84.25,84.25,0,0,0,28.71-5c32.68-11.84,55.54-43.42,55.54-80.48v-219a8,8,0,0,0-.16-1.78,11.89,11.89,0,0,0-11.25-8M1112.52,337h-90A24.52,24.52,0,0,1,998,312.48V247a24.52,24.52,0,0,1,24.52-24.52h90Z"/><path class="cls-1" d="M901.56,165.22H865.44a10.58,10.58,0,0,0-10.57,10.58V383.67a10.57,10.57,0,0,0,10.57,10.57h36.12a10.58,10.58,0,0,0,10.58-10.57V175.8a10.58,10.58,0,0,0-10.58-10.58"/><path class="cls-1" d="M907.36,80.76H871.5A10.51,10.51,0,0,0,861,91.26v35.85a10.51,10.51,0,0,0,10.5,10.5h35.86a10.51,10.51,0,0,0,10.5-10.5V91.26a10.5,10.5,0,0,0-10.5-10.5"/><path class="cls-1" d="M1245.09,165.22H1209a10.58,10.58,0,0,0-10.57,10.58V383.67A10.57,10.57,0,0,0,1209,394.24h36.12a10.58,10.58,0,0,0,10.58-10.57V175.8a10.58,10.58,0,0,0-10.58-10.58"/><path class="cls-1" d="M1248.44,80.76h-35.86a10.49,10.49,0,0,0-10.49,10.5v35.85a10.5,10.5,0,0,0,10.49,10.5h35.86a10.51,10.51,0,0,0,10.5-10.5V91.26a10.5,10.5,0,0,0-10.5-10.5"/><path class="cls-1" d="M1446.85,165h-76.76V136.25h76.78a10.58,10.58,0,0,0,10.57-10.57V89.57A10.58,10.58,0,0,0,1446.87,79h-55.15a82.28,82.28,0,0,0-15.57,1.51,74.79,74.79,0,0,0-8.36,2.52,82.93,82.93,0,0,0-55,78v3.88h-18a10.58,10.58,0,0,0-10.58,10.58v36.09a10.58,10.58,0,0,0,10.58,10.58h18V383.41a10.62,10.62,0,0,0,10.6,10.59h36.07a10.62,10.62,0,0,0,10.6-10.59V232.83c0-.27,0-5.41,0-10.5h39.58v-.07h37.14a10.57,10.57,0,0,0,10.59-10.55V175.6A10.61,10.61,0,0,0,1446.85,165"/><path class="cls-1" d="M1715.12,173.32a11.83,11.83,0,0,0-11.25-8h-35.26A10.65,10.65,0,0,0,1658,175.94V337.08h-90.08a24.47,24.47,0,0,1-24.56-24.49V175.94a10.62,10.62,0,0,0-10.62-10.62h-36.11A10.61,10.61,0,0,0,1486,175.94v136.5a83.13,83.13,0,0,0,63.43,80.68,86.42,86.42,0,0,0,15.65,1.46H1658V396a26.69,26.69,0,0,1-3.07,13.09,27.61,27.61,0,0,1-24.19,14.24h-70.54c-14.89,0-22.42,17.93-12,28.57,8.17,8.31,16.49,16.79,22.65,23.11a16.58,16.58,0,0,0,11.86,5H1631a84.2,84.2,0,0,0,28.72-5c32.72-11.86,55.66-43.5,55.66-80.6V175.09a6.76,6.76,0,0,0-.23-1.77"/><path class="cls-2" d="M178.24,155c0,7.51-.09,24.59-.09,24.59a66.53,66.53,0,0,1-1.71,8.11,35.75,35.75,0,0,1-3.26,7.21A35.13,35.13,0,0,1,158,208.17s-7.1,3.12-22.74,3.14h-1.45c-.23,0-.54,0-.93,0a5.56,5.56,0,0,0-1.23.21,3,3,0,0,0-1,.49,2.78,2.78,0,0,0-.58.67,4.07,4.07,0,0,0-.59,1.37s0,38.72,0,80q0,35.85,0,71.69V384.1A35.27,35.27,0,0,0,130,388a16.1,16.1,0,0,0,1.2,3.51,20.49,20.49,0,0,0,6.34,7.81,16.78,16.78,0,0,0,5.11,2.7,36,36,0,0,0,5.9,1.11l10.8,0c29.44-.08,47.59,0,70.74.05,28.41.06,113.64,0,85.23.05,0,0,3,0,4.25,0a23.33,23.33,0,0,0,7-1.11,20,20,0,0,0,8.05-5.37,19.28,19.28,0,0,0,3.4-5.14,23.51,23.51,0,0,0,1.74-7.36V365.81c0-103.73,0-119.12,0-149.9v-1.77a3.49,3.49,0,0,0-4.33-2.77c-6.8,0-11.32-.47-11.32-.47a44.92,44.92,0,0,1-8.75-1.41,34.4,34.4,0,0,1-13.7-7.7,37.22,37.22,0,0,1-7.18-9.81c-.82-1.71-1.41-3.41-1.41-3.41a37.52,37.52,0,0,1-1.18-4.48,30,30,0,0,1-.79-4.43,22.83,22.83,0,0,1,0-3.53l0-9.09s0-11.94,0-12c-5.57-33.75-9.6-58-10.27-60.65,0,0-.72-2.88.37-4.24a4.37,4.37,0,0,1,.8-.74,3.46,3.46,0,0,1,1.2-.55,7.34,7.34,0,0,1,1-.12h40.11a8.43,8.43,0,0,1,3.58.84,9.82,9.82,0,0,1,3.35,2.85,14.91,14.91,0,0,1,1.78,2.68c2.58,5,19.44,38.12,20.91,41s2.27,4.44,2.4,4.68c1.07,2,4.46,8.13,5.4,10.46.09.21.42,1.06.78,2.12.16.48.28.85.39,1.23.14.53.24.94.27,1.07s.18.84.3,1.71a22.06,22.06,0,0,1,.22,2.58s0,25.93-.06,52.37c0,6.44,0,22.53,0,25.45,0,0,0,49.71.31,119.74l0,27.26s-.39,4.57-.91,7.56a37.7,37.7,0,0,1-2.69,8.71,45.61,45.61,0,0,1-15.22,18.45,50.57,50.57,0,0,1-13.4,6.2c-1.8.5-2.7.65-2.7.65-1.3.22-4.84.68-4.85.69h0s-2.25.1-6.69.13c-11.74.07-101.1-.07-110.34-.07H168.8c-7.13,0-8.67.05-13.46,0-5.89,0-8.84-.05-10.09-.14a43.6,43.6,0,0,1-36.53-26.84,48,48,0,0,1-3-12.23c-.25-2.24-.27-5-.29-10.39,0-4.34,0-6.45.09-11,.05-6-.12-10,0-12.35h0s.36-58.73.18-188.19a43,43,0,0,1,.49-8.94,28.26,28.26,0,0,1,1.49-5.87,36.49,36.49,0,0,1,2.19-4.35c2.12-4.41,5.12-9.62,12.5-24.38h0c7.36-14.67,14.4-28.16,14.4-28.16a22.52,22.52,0,0,1,3.11-3.76c.25-.18.54-.36.54-.36a8.69,8.69,0,0,1,2.28-1.12,9.83,9.83,0,0,1,2.4-.36h35.06s4.23,0,5.57,0h0a3.77,3.77,0,0,1,2.6,1.65c.88,1.54.2,4,.22,4v-.09c0,.15-4.65,27.47-4.68,27.62S178.28,154.79,178.24,155Z"/><path class="cls-2" d="M271.23,152.93c-.05,28.14-.06,29.77-.06,29.77h0s-.06.63-.07.65A22.86,22.86,0,0,1,270,187c-.08.21-.2.54-.35.92-.23.58-.57,1.37-1,2.26a45.22,45.22,0,0,1-9.06,12.28,37.49,37.49,0,0,1-24.12,9.8,40.53,40.53,0,0,1-34.34-21.92,22.81,22.81,0,0,1-2.42-7.43,2,2,0,0,1,0-.27v-.31c0-1.86,0-11.91-.09-29.33,3.54-20.35,6.24-35.91,8.06-46.38,0-.16,2.42-14,2.45-14.15h0a6.39,6.39,0,0,1,2.08-3.11,4.19,4.19,0,0,1,1.53-.6,3.82,3.82,0,0,1,.72,0h44s.69.12,1.11.25a3,3,0,0,1,1.32.69,3.77,3.77,0,0,1,.87,2L263.29,107Q267.27,130,271.23,152.93Z"/><path class="cls-2" d="M309.55,329c-5.56,5.33-32.14,29.69-73.8,30s-68.47-23.47-74.14-28.71a12.3,12.3,0,0,1-3-7.32c0-.74-.23-5.91,3.69-9.24,4.65-4,11-1.83,12.15-1.43a14.73,14.73,0,0,1,4.81,2.72c5,4.37,25.17,21.14,55.75,21.16,33.39,0,54.77-20,59-24.12.23-.11.56-.27,1-.43a12.07,12.07,0,0,1,11,1.73c4.77,3.54,5.64,10,4.15,14.16A10.55,10.55,0,0,1,309.55,329Z"/><path class="cls-2" d="M291.23,155c0,7.51.09,24.59.09,24.59a66.53,66.53,0,0,0,1.71,8.11,35.75,35.75,0,0,0,3.26,7.21,35.13,35.13,0,0,0,15.17,13.25s7.1,3.12,22.74,3.14h1.45c.22,0,.54,0,.93,0a5.56,5.56,0,0,1,1.23.21,2.49,2.49,0,0,1,1.59,1.16,4.29,4.29,0,0,1,.59,1.37s0,38.72,0,80q0,35.85,0,71.69V384.1a35.27,35.27,0,0,1-.53,3.87,16.1,16.1,0,0,1-1.2,3.51,20.49,20.49,0,0,1-6.34,7.81,16.91,16.91,0,0,1-5.11,2.7,36,36,0,0,1-5.9,1.11l-10.8,0c-29.44-.08-47.59,0-70.74.05-28.41.06-113.64,0-85.23.05,0,0-3,0-4.25,0a23.42,23.42,0,0,1-7-1.11,20.09,20.09,0,0,1-8-5.37,19.72,19.72,0,0,1-3.41-5.14,23.72,23.72,0,0,1-1.73-7.36V365.81c0-103.73,0-119.12,0-149.9v-1.77a3.51,3.51,0,0,1,4.34-2.77c6.8,0,11.32-.47,11.32-.47a44.92,44.92,0,0,0,8.75-1.41,34.4,34.4,0,0,0,13.7-7.7A37.47,37.47,0,0,0,175,192a35.38,35.38,0,0,0,1.4-3.41,39.44,39.44,0,0,0,1.19-4.48,30,30,0,0,0,.79-4.43,22.83,22.83,0,0,0,0-3.53l0-9.09s0-11.94,0-12c5.58-33.75,9.61-58,10.28-60.65,0,0,.72-2.88-.37-4.24a4.37,4.37,0,0,0-.8-.74,3.46,3.46,0,0,0-1.2-.55,7.34,7.34,0,0,0-1-.12H145.32a8.38,8.38,0,0,0-3.58.84,9.82,9.82,0,0,0-3.35,2.85,14.91,14.91,0,0,0-1.78,2.68c-2.58,5-19.44,38.12-20.91,41s-2.28,4.44-2.41,4.68c-1.06,2-4.45,8.13-5.39,10.46-.09.21-.42,1.06-.78,2.12-.16.48-.28.85-.39,1.23-.15.53-.24.94-.27,1.07s-.19.84-.31,1.71a24.85,24.85,0,0,0-.21,2.58s0,25.93,0,52.37c0,6.44,0,22.53,0,25.45,0,0,0,49.71-.31,119.73l0,27.27s.39,4.57.91,7.56a37.7,37.7,0,0,0,2.69,8.71,45.61,45.61,0,0,0,15.22,18.45,50.57,50.57,0,0,0,13.4,6.2c1.8.5,2.7.65,2.7.65,1.3.22,4.84.68,4.85.69h0s2.25.1,6.69.13c11.74.07,101.1-.07,110.34-.07h38.13c7.13,0,8.67.05,13.46,0,5.89,0,8.83-.05,10.08-.14a43.63,43.63,0,0,0,36.54-26.84,48,48,0,0,0,3-12.23c.25-2.24.26-5,.29-10.39,0-4.34-.05-6.45-.09-11-.05-6,.12-10,0-12.35h0c0-104.59-.67-149.64-.24-167,.18-7-.28-14.12.06-21.17a44.55,44.55,0,0,0-.19-6.67,32.84,32.84,0,0,0-1.39-7,28.32,28.32,0,0,0-2.59-5.49c-2.51-4.36-4.62-8.93-6.93-13.39-1.52-3-3.35-6.54-5.57-11h0c-7.36-14.67-14.4-28.16-14.41-28.16a21.4,21.4,0,0,0-3.1-3.76c-.25-.18-.54-.36-.54-.36a8.69,8.69,0,0,0-2.28-1.12,9.83,9.83,0,0,0-2.4-.36H289.34s-4.23,0-5.57,0h0a3.77,3.77,0,0,0-2.6,1.65c-.88,1.54-.2,4-.22,4v-.09c0,.15,4.65,27.47,4.68,27.62S291.19,154.79,291.23,155Z"/></svg>