<svg width="497" height="340" viewBox="0 0 497 340" fill="none" xmlns="http://www.w3.org/2000/svg">
<g clip-path="url(#clip0_412_21)">
<path d="M282.861 40.2641L132.482 40.1828C128.92 40.1828 125.504 41.5979 122.985 44.1168C120.466 46.6358 119.051 50.0521 119.051 53.6144L119 286.599C119.007 290.151 120.421 293.556 122.933 296.067C125.444 298.579 128.849 299.993 132.401 300L282.714 300.086C335.694 300.117 378.69 257.176 378.69 204.196L378.731 136.281C378.782 83.2859 335.836 40.2945 282.861 40.2641Z" fill="#483493"/>
<path d="M209.243 118.604C209.243 122.418 209.198 131.091 209.198 131.091C208.994 132.481 208.704 133.856 208.329 135.21C207.915 136.487 207.362 137.715 206.679 138.871C204.824 141.827 202.144 144.175 198.97 145.625C198.97 145.625 195.37 147.204 187.423 147.214H186.686C186.531 147.206 186.375 147.206 186.219 147.214C186.006 147.222 185.794 147.256 185.589 147.316C185.407 147.368 185.235 147.452 185.082 147.565C184.966 147.664 184.866 147.78 184.787 147.91C184.646 148.12 184.546 148.354 184.493 148.601C184.493 148.601 184.493 168.263 184.493 189.226C184.493 201.362 184.493 213.498 184.493 225.631V234.949C184.546 235.609 184.636 236.265 184.762 236.914C184.895 237.533 185.101 238.133 185.376 238.702C186.103 240.268 187.208 241.629 188.591 242.663C189.371 243.268 190.251 243.732 191.191 244.034C192.17 244.305 193.171 244.494 194.182 244.598H199.666C214.616 244.562 223.833 244.598 235.589 244.623C250.016 244.654 293.296 244.623 278.87 244.648C278.87 244.648 280.393 244.648 281.033 244.648C282.239 244.642 283.438 244.452 284.587 244.085C285.861 243.624 287.031 242.916 288.029 242.001C289.027 241.086 289.833 239.982 290.402 238.753C290.895 237.561 291.192 236.297 291.28 235.01V225.651C291.28 172.976 291.28 165.161 291.28 149.53V148.631C291.237 148.39 291.143 148.16 291.007 147.956C290.87 147.752 290.693 147.579 290.486 147.447C290.279 147.315 290.047 147.227 289.804 147.189C289.562 147.15 289.314 147.163 289.077 147.225C285.623 147.225 283.328 146.986 283.328 146.986C281.827 146.894 280.339 146.654 278.885 146.27C276.296 145.523 273.916 144.184 271.933 142.36C270.452 140.91 269.219 139.227 268.282 137.378C268.015 136.814 267.777 136.236 267.571 135.646C267.325 134.901 267.123 134.141 266.966 133.371C266.779 132.632 266.645 131.88 266.565 131.122C266.519 130.525 266.519 129.926 266.565 129.329V124.713C266.565 124.713 266.565 118.65 266.565 118.62C263.732 101.481 261.685 89.1664 261.345 87.8207C261.345 87.8207 260.979 86.3582 261.533 85.6727C261.651 85.5286 261.788 85.4005 261.939 85.2918C262.122 85.1605 262.329 85.0656 262.548 85.0125C262.716 84.9806 262.886 84.9602 263.056 84.9516H283.425C284.055 84.9538 284.676 85.0978 285.243 85.373C285.912 85.7206 286.493 86.2155 286.944 86.8203C287.295 87.2386 287.598 87.6951 287.848 88.1813C289.158 90.7203 297.72 107.539 298.466 109.002C299.213 110.464 299.624 111.256 299.69 111.378C300.228 112.394 301.95 115.512 302.427 116.69C302.473 116.796 302.645 117.233 302.823 117.766C302.909 118.01 302.965 118.198 303.021 118.391C303.097 118.66 303.143 118.868 303.158 118.939C303.173 119.011 303.255 119.361 303.316 119.803C303.374 120.239 303.409 120.678 303.422 121.118C303.422 121.118 303.422 134.28 303.397 147.707C303.397 150.977 303.397 159.148 303.397 160.631C303.397 160.631 303.397 185.874 303.554 221.436V235.279C303.554 235.279 303.356 237.6 303.092 239.118C302.818 240.643 302.36 242.128 301.726 243.541C300.029 247.295 297.363 250.528 294.002 252.911C291.902 254.29 289.609 255.351 287.198 256.059C286.279 256.313 285.821 256.389 285.821 256.389C285.161 256.501 283.364 256.739 283.359 256.739C283.359 256.739 282.211 256.79 279.956 256.805C273.995 256.841 228.616 256.77 223.924 256.77H204.45C200.829 256.77 200.047 256.795 197.614 256.77C194.623 256.77 193.13 256.739 192.496 256.694C188.451 256.34 184.581 254.882 181.309 252.478C178.036 250.075 175.487 246.818 173.94 243.064C173.162 241.07 172.65 238.982 172.417 236.854C172.29 235.716 172.285 234.34 172.27 231.582C172.27 229.373 172.27 228.302 172.315 225.996C172.341 222.95 172.254 220.918 172.315 219.73C172.315 219.73 172.498 189.906 172.407 124.17C172.331 122.65 172.415 121.127 172.655 119.625C172.806 118.608 173.059 117.609 173.412 116.644C173.733 115.884 174.105 115.146 174.524 114.435C175.601 112.196 177.124 109.55 180.877 102.055C184.609 94.6051 188.189 87.7598 188.189 87.7547C188.642 87.0619 189.17 86.4215 189.764 85.8453L190.038 85.6625C190.393 85.4172 190.784 85.2272 191.196 85.0988C191.592 84.9849 192.002 84.9235 192.414 84.916H210.203C210.203 84.916 212.351 84.916 213.032 84.916C213.298 84.9552 213.552 85.0495 213.78 85.193C214.007 85.3364 214.202 85.5257 214.352 85.7488C214.799 86.5309 214.454 87.7801 214.464 87.7801C214.474 87.7801 214.464 87.7344 214.464 87.7395C214.464 87.7445 212.097 101.684 212.087 101.76C212.077 101.836 209.264 118.493 209.243 118.604Z" fill="white"/>
<path d="M256.465 117.548C256.439 131.843 256.439 132.666 256.439 132.666C256.439 132.666 256.404 132.986 256.404 133.001C256.254 133.636 256.058 134.259 255.815 134.864C255.774 134.976 255.713 135.139 255.637 135.332C255.52 135.626 255.348 136.027 255.129 136.479C253.96 138.805 252.403 140.914 250.523 142.715C247.165 145.782 242.821 147.547 238.275 147.692C234.644 147.541 231.117 146.432 228.053 144.477C224.989 142.522 222.498 139.791 220.832 136.561C220.211 135.382 219.795 134.106 219.603 132.788C219.603 132.727 219.603 132.681 219.603 132.65V132.493C219.603 131.548 219.603 126.445 219.562 117.599C221.355 107.265 222.726 99.3633 223.625 94.0465C223.625 93.9652 224.858 86.9371 224.869 86.8609C225.054 86.2419 225.423 85.6933 225.925 85.2867C226.162 85.1355 226.426 85.0304 226.702 84.977C226.825 84.9624 226.949 84.9624 227.073 84.977H249.416C249.416 84.977 249.767 85.0379 249.98 85.1039C250.229 85.1625 250.46 85.283 250.65 85.4543C250.897 85.7404 251.051 86.0945 251.092 86.4699C251.542 89.0564 251.991 91.6428 252.438 94.2293C253.778 101.999 255.121 109.772 256.465 117.548Z" fill="white"/>
<path d="M275.914 206.938C273.096 209.645 259.598 222.015 238.443 222.173C217.287 222.33 203.668 210.259 200.788 207.593C199.887 206.555 199.352 205.249 199.265 203.876C199.265 203.5 199.153 200.875 201.144 199.184C203.505 197.178 206.73 198.255 207.314 198.458C208.206 198.761 209.033 199.23 209.751 199.839C212.29 202.058 222.538 210.574 238.067 210.584C255.023 210.584 265.88 200.428 268.028 198.341C268.192 198.257 268.362 198.184 268.536 198.123C269.468 197.806 270.463 197.72 271.436 197.872C272.409 198.024 273.33 198.41 274.121 198.996C276.544 200.794 276.986 204.074 276.229 206.187C276.143 206.445 276.038 206.696 275.914 206.938V206.938Z" fill="white"/>
<path d="M266.621 118.604C266.621 122.418 266.667 131.091 266.667 131.091C266.87 132.481 267.16 133.856 267.535 135.21C267.95 136.488 268.505 137.716 269.19 138.871C271.043 141.827 273.721 144.175 276.894 145.625C276.894 145.625 280.499 147.204 288.442 147.214H289.178C289.335 147.206 289.493 147.206 289.65 147.214C289.862 147.222 290.072 147.256 290.275 147.316C290.458 147.367 290.63 147.451 290.783 147.565C290.901 147.662 291.002 147.779 291.082 147.91C291.221 148.121 291.321 148.355 291.377 148.601C291.377 148.601 291.377 168.263 291.377 189.226C291.377 201.363 291.377 213.498 291.377 225.631V234.949C291.323 235.609 291.234 236.265 291.108 236.914C290.974 237.532 290.769 238.131 290.498 238.702C289.77 240.269 288.664 241.63 287.279 242.663C286.501 243.269 285.622 243.733 284.684 244.034C283.703 244.305 282.7 244.494 281.688 244.598H276.203C261.253 244.562 252.037 244.598 240.281 244.623C225.854 244.654 182.578 244.623 197 244.648C197 244.648 195.476 244.648 194.842 244.648C193.635 244.642 192.436 244.452 191.287 244.085C189.732 243.518 188.338 242.582 187.224 241.358C186.514 240.586 185.932 239.707 185.498 238.753C185.002 237.562 184.705 236.297 184.619 235.01V225.651C184.619 172.976 184.619 165.161 184.619 149.53V148.631C184.663 148.39 184.756 148.161 184.893 147.958C185.029 147.754 185.206 147.581 185.412 147.449C185.619 147.317 185.85 147.229 186.092 147.19C186.334 147.152 186.581 147.163 186.818 147.225C190.276 147.225 192.572 146.986 192.572 146.986C194.073 146.894 195.561 146.654 197.015 146.27C199.603 145.52 201.982 144.182 203.967 142.36C205.448 140.91 206.681 139.227 207.618 137.378C208.029 136.51 208.329 135.647 208.329 135.647C208.576 134.901 208.776 134.141 208.928 133.372C209.117 132.632 209.253 131.88 209.335 131.122C209.382 130.525 209.382 129.926 209.335 129.329V124.713C209.335 124.713 209.36 118.65 209.36 118.62C212.188 101.481 214.235 89.1664 214.575 87.8207C214.575 87.8207 214.941 86.3582 214.387 85.6727C214.27 85.5273 214.134 85.3991 213.981 85.2918C213.799 85.1585 213.592 85.0635 213.372 85.0125C213.204 84.9806 213.034 84.9602 212.864 84.9516H192.531C191.9 84.9541 191.277 85.0981 190.708 85.3731C190.039 85.7207 189.457 86.2155 189.007 86.8203C188.656 87.2382 188.355 87.6948 188.108 88.1813C186.793 90.7203 178.231 107.539 177.485 109.002C176.738 110.464 176.332 111.256 176.266 111.378C175.722 112.394 174.001 115.512 173.524 116.69C173.483 116.797 173.31 117.233 173.128 117.766C173.046 118.01 172.985 118.198 172.935 118.391C172.858 118.66 172.808 118.868 172.792 118.939C172.777 119.011 172.701 119.361 172.64 119.803C172.577 120.238 172.541 120.678 172.533 121.118C172.533 121.118 172.533 134.28 172.533 147.707C172.533 150.977 172.533 159.148 172.533 160.631C172.533 160.631 172.533 185.874 172.376 221.436V235.279C172.376 235.279 172.569 237.6 172.833 239.118C173.107 240.643 173.566 242.128 174.199 243.541C175.907 247.303 178.589 250.54 181.969 252.916C184.069 254.295 186.362 255.356 188.773 256.064C189.687 256.318 190.144 256.394 190.144 256.394C190.804 256.506 192.602 256.745 192.607 256.745C192.607 256.745 193.75 256.795 196.004 256.811C201.966 256.846 247.349 256.775 252.037 256.775H271.399C275.025 256.775 275.802 256.8 278.235 256.775C281.226 256.775 282.724 256.745 283.358 256.699C287.403 256.346 291.272 254.888 294.544 252.484C297.816 250.08 300.364 246.823 301.909 243.069C302.684 241.074 303.196 238.986 303.432 236.859C303.559 235.721 303.564 234.345 303.574 231.588C303.574 229.379 303.574 228.307 303.534 226.002C303.503 222.955 303.59 220.923 303.534 219.735C303.534 166.623 303.188 143.746 303.407 134.93C303.498 131.376 303.27 127.76 303.437 124.185C303.49 123.055 303.458 121.923 303.341 120.798C303.238 119.591 303.001 118.399 302.635 117.243C302.298 116.27 301.857 115.335 301.32 114.455C300.05 112.241 298.974 109.921 297.806 107.656C297.029 106.132 296.099 104.335 294.972 102.07C291.235 94.6203 287.66 87.775 287.66 87.7699C287.204 87.0782 286.674 86.4379 286.08 85.8606C285.953 85.7692 285.811 85.6778 285.811 85.6778C285.453 85.4337 285.061 85.2438 284.648 85.1141C284.252 84.9999 283.842 84.9384 283.429 84.9313H265.661C265.661 84.9313 263.518 84.9313 262.833 84.9313C262.567 84.9714 262.312 85.0661 262.085 85.2094C261.858 85.3527 261.663 85.5416 261.512 85.7641C261.065 86.5461 261.411 87.7953 261.401 87.7953C261.39 87.7953 261.401 87.7496 261.401 87.7547C261.401 87.7598 263.762 101.699 263.777 101.775C263.792 101.852 266.601 118.493 266.621 118.604Z" fill="white"/>
</g>
<defs>
<clipPath id="clip0_412_21">
<rect width="260" height="260" fill="white" transform="translate(119 40)"/>
</clipPath>
</defs>
</svg>
