<svg width="452" height="300" viewBox="0 0 452 300" fill="none" xmlns="http://www.w3.org/2000/svg">
<g clip-path="url(#clip0_412_21)">
<path d="M259.861 20.2641L109.482 20.1828C105.92 20.1828 102.504 21.5979 99.9848 24.1168C97.4659 26.6358 96.0508 30.0521 96.0508 33.6144L96 266.599C96.0067 270.151 97.4208 273.556 99.9325 276.067C102.444 278.579 105.849 279.993 109.401 280L259.714 280.086C312.694 280.117 355.69 237.176 355.69 184.196L355.731 116.281C355.782 63.2859 312.836 20.2945 259.861 20.2641Z" fill="#483493"/>
<path d="M186.243 98.6043C186.243 102.418 186.198 111.091 186.198 111.091C185.994 112.481 185.704 113.856 185.329 115.21C184.915 116.487 184.362 117.715 183.679 118.871C181.824 121.827 179.144 124.175 175.97 125.625C175.97 125.625 172.37 127.204 164.423 127.214H163.686C163.531 127.206 163.375 127.206 163.219 127.214C163.006 127.222 162.794 127.256 162.589 127.316C162.407 127.368 162.235 127.452 162.082 127.565C161.966 127.664 161.866 127.78 161.787 127.91C161.646 128.12 161.546 128.354 161.493 128.601C161.493 128.601 161.493 148.263 161.493 169.226C161.493 181.362 161.493 193.498 161.493 205.631V214.949C161.546 215.609 161.636 216.265 161.762 216.914C161.895 217.533 162.101 218.133 162.376 218.702C163.103 220.268 164.208 221.629 165.591 222.663C166.371 223.268 167.251 223.732 168.191 224.034C169.17 224.305 170.171 224.494 171.182 224.598H176.666C191.616 224.562 200.833 224.598 212.589 224.623C227.016 224.654 270.296 224.623 255.87 224.648C255.87 224.648 257.393 224.648 258.033 224.648C259.239 224.642 260.438 224.452 261.587 224.085C262.861 223.624 264.031 222.916 265.029 222.001C266.027 221.086 266.833 219.982 267.402 218.753C267.895 217.561 268.192 216.297 268.28 215.01V205.651C268.28 152.976 268.28 145.161 268.28 129.53V128.631C268.237 128.39 268.143 128.16 268.007 127.956C267.87 127.752 267.693 127.579 267.486 127.447C267.279 127.315 267.047 127.227 266.804 127.189C266.562 127.15 266.314 127.163 266.077 127.225C262.623 127.225 260.328 126.986 260.328 126.986C258.827 126.894 257.339 126.654 255.885 126.27C253.296 125.523 250.916 124.184 248.933 122.36C247.452 120.91 246.219 119.227 245.282 117.378C245.015 116.814 244.777 116.236 244.571 115.646C244.325 114.901 244.123 114.141 243.966 113.371C243.779 112.632 243.645 111.88 243.565 111.122C243.519 110.525 243.519 109.926 243.565 109.329V104.713C243.565 104.713 243.565 98.65 243.565 98.6195C240.732 81.4809 238.685 69.1664 238.345 67.8207C238.345 67.8207 237.979 66.3582 238.533 65.6727C238.651 65.5286 238.788 65.4005 238.939 65.2918C239.122 65.1605 239.329 65.0656 239.548 65.0125C239.716 64.9806 239.886 64.9602 240.056 64.9516H260.425C261.055 64.9538 261.676 65.0978 262.243 65.373C262.912 65.7206 263.493 66.2155 263.944 66.8203C264.295 67.2386 264.598 67.6951 264.848 68.1813C266.158 70.7203 274.72 87.5391 275.466 89.0016C276.213 90.4641 276.624 91.2563 276.69 91.3781C277.228 92.3938 278.95 95.5117 279.427 96.6898C279.473 96.7965 279.645 97.2332 279.823 97.7664C279.909 98.0102 279.965 98.198 280.021 98.391C280.097 98.6602 280.143 98.8684 280.158 98.9395C280.173 99.0105 280.255 99.3609 280.316 99.8027C280.374 100.239 280.409 100.678 280.422 101.118C280.422 101.118 280.422 114.28 280.397 127.707C280.397 130.977 280.397 139.148 280.397 140.631C280.397 140.631 280.397 165.874 280.554 201.436V215.279C280.554 215.279 280.356 217.6 280.092 219.118C279.818 220.643 279.36 222.128 278.726 223.541C277.029 227.295 274.363 230.528 271.002 232.911C268.902 234.29 266.609 235.351 264.198 236.059C263.279 236.313 262.821 236.389 262.821 236.389C262.161 236.501 260.364 236.739 260.359 236.739C260.359 236.739 259.211 236.79 256.956 236.805C250.995 236.841 205.616 236.77 200.924 236.77H181.45C177.829 236.77 177.047 236.795 174.614 236.77C171.623 236.77 170.13 236.739 169.496 236.694C165.451 236.34 161.581 234.882 158.309 232.478C155.036 230.075 152.487 226.818 150.94 223.064C150.162 221.07 149.65 218.982 149.417 216.854C149.29 215.716 149.285 214.34 149.27 211.582C149.27 209.373 149.27 208.302 149.315 205.996C149.341 202.95 149.254 200.918 149.315 199.73C149.315 199.73 149.498 169.906 149.407 104.17C149.331 102.65 149.415 101.127 149.655 99.625C149.806 98.6082 150.059 97.6094 150.412 96.6441C150.733 95.8839 151.105 95.1459 151.524 94.4352C152.601 92.1957 154.124 89.55 157.877 82.0547C161.609 74.6051 165.189 67.7598 165.189 67.7547C165.642 67.0619 166.17 66.4215 166.764 65.8453L167.038 65.6625C167.393 65.4172 167.784 65.2272 168.196 65.0988C168.592 64.9849 169.002 64.9235 169.414 64.916H187.203C187.203 64.916 189.351 64.916 190.032 64.916C190.298 64.9552 190.552 65.0495 190.78 65.193C191.007 65.3364 191.202 65.5257 191.352 65.7488C191.799 66.5309 191.454 67.7801 191.464 67.7801C191.474 67.7801 191.464 67.7344 191.464 67.7395C191.464 67.7445 189.097 81.684 189.087 81.7602C189.077 81.8363 186.264 98.4926 186.243 98.6043Z" fill="white"/>
<path d="M233.465 97.5481C233.439 111.843 233.439 112.666 233.439 112.666C233.439 112.666 233.404 112.986 233.404 113.001C233.254 113.636 233.058 114.259 232.815 114.864C232.774 114.976 232.713 115.139 232.637 115.332C232.52 115.626 232.348 116.027 232.129 116.479C230.96 118.805 229.403 120.914 227.523 122.715C224.165 125.782 219.821 127.547 215.275 127.692C211.644 127.541 208.117 126.432 205.053 124.477C201.989 122.522 199.498 119.791 197.832 116.561C197.211 115.382 196.795 114.106 196.603 112.788C196.603 112.727 196.603 112.681 196.603 112.65V112.493C196.603 111.548 196.603 106.445 196.562 97.5988C198.355 87.2648 199.726 79.3633 200.625 74.0465C200.625 73.9652 201.858 66.9371 201.869 66.8609C202.054 66.2419 202.423 65.6933 202.925 65.2867C203.162 65.1355 203.426 65.0304 203.702 64.977C203.825 64.9624 203.949 64.9624 204.073 64.977H226.416C226.416 64.977 226.767 65.0379 226.98 65.1039C227.229 65.1625 227.46 65.283 227.65 65.4543C227.897 65.7404 228.051 66.0945 228.092 66.4699C228.542 69.0564 228.991 71.6428 229.438 74.2293C230.778 81.9988 232.121 89.7718 233.465 97.5481Z" fill="white"/>
<path d="M252.914 186.938C250.096 189.645 236.598 202.015 215.443 202.173C194.287 202.33 180.668 190.259 177.788 187.593C176.887 186.555 176.352 185.249 176.265 183.876C176.265 183.5 176.153 180.875 178.144 179.184C180.505 177.178 183.73 178.255 184.314 178.458C185.206 178.761 186.033 179.23 186.751 179.839C189.29 182.058 199.538 190.574 215.067 190.584C232.023 190.584 242.88 180.428 245.028 178.341C245.192 178.257 245.362 178.184 245.536 178.123C246.468 177.806 247.463 177.72 248.436 177.872C249.409 178.024 250.33 178.41 251.121 178.996C253.544 180.794 253.986 184.074 253.229 186.187C253.143 186.445 253.038 186.696 252.914 186.938V186.938Z" fill="white"/>
<path d="M243.621 98.6043C243.621 102.418 243.667 111.091 243.667 111.091C243.87 112.481 244.16 113.856 244.535 115.21C244.95 116.488 245.505 117.716 246.19 118.871C248.043 121.827 250.721 124.175 253.894 125.625C253.894 125.625 257.499 127.204 265.442 127.214H266.178C266.335 127.206 266.493 127.206 266.65 127.214C266.862 127.222 267.072 127.256 267.275 127.316C267.458 127.367 267.63 127.451 267.783 127.565C267.901 127.662 268.002 127.779 268.082 127.91C268.221 128.121 268.321 128.355 268.377 128.601C268.377 128.601 268.377 148.263 268.377 169.226C268.377 181.363 268.377 193.498 268.377 205.631V214.949C268.323 215.609 268.234 216.265 268.108 216.914C267.974 217.532 267.769 218.131 267.498 218.702C266.77 220.269 265.664 221.63 264.279 222.663C263.501 223.269 262.622 223.733 261.684 224.034C260.703 224.305 259.7 224.494 258.688 224.598H253.203C238.253 224.562 229.037 224.598 217.281 224.623C202.854 224.654 159.578 224.623 174 224.648C174 224.648 172.476 224.648 171.842 224.648C170.635 224.642 169.436 224.452 168.287 224.085C166.732 223.518 165.338 222.582 164.224 221.358C163.514 220.586 162.932 219.707 162.498 218.753C162.002 217.562 161.705 216.297 161.619 215.01V205.651C161.619 152.976 161.619 145.161 161.619 129.53V128.631C161.663 128.39 161.756 128.161 161.893 127.958C162.029 127.754 162.206 127.581 162.412 127.449C162.619 127.317 162.85 127.229 163.092 127.19C163.334 127.152 163.581 127.163 163.818 127.225C167.276 127.225 169.572 126.986 169.572 126.986C171.073 126.894 172.561 126.654 174.015 126.27C176.603 125.52 178.982 124.182 180.967 122.36C182.448 120.91 183.681 119.227 184.618 117.378C185.029 116.51 185.329 115.647 185.329 115.647C185.576 114.901 185.776 114.141 185.928 113.372C186.117 112.632 186.253 111.88 186.335 111.122C186.382 110.525 186.382 109.926 186.335 109.329V104.713C186.335 104.713 186.36 98.65 186.36 98.6196C189.188 81.4809 191.235 69.1664 191.575 67.8207C191.575 67.8207 191.941 66.3582 191.387 65.6727C191.27 65.5273 191.134 65.3991 190.981 65.2918C190.799 65.1585 190.592 65.0635 190.372 65.0125C190.204 64.9806 190.034 64.9602 189.864 64.9516H169.531C168.9 64.9541 168.277 65.0981 167.708 65.3731C167.039 65.7207 166.457 66.2155 166.007 66.8203C165.656 67.2382 165.355 67.6948 165.108 68.1813C163.793 70.7203 155.231 87.5391 154.485 89.0016C153.738 90.4641 153.332 91.2563 153.266 91.3781C152.722 92.3938 151.001 95.5117 150.524 96.6899C150.483 96.7965 150.31 97.2332 150.128 97.7664C150.046 98.0102 149.985 98.1981 149.935 98.391C149.858 98.6602 149.808 98.8684 149.792 98.9395C149.777 99.0106 149.701 99.361 149.64 99.8028C149.577 100.238 149.541 100.678 149.533 101.118C149.533 101.118 149.533 114.28 149.533 127.707C149.533 130.977 149.533 139.148 149.533 140.631C149.533 140.631 149.533 165.874 149.376 201.436V215.279C149.376 215.279 149.569 217.6 149.833 219.118C150.107 220.643 150.566 222.128 151.199 223.541C152.907 227.303 155.589 230.54 158.969 232.916C161.069 234.295 163.362 235.356 165.773 236.064C166.687 236.318 167.144 236.394 167.144 236.394C167.804 236.506 169.602 236.745 169.607 236.745C169.607 236.745 170.75 236.795 173.004 236.811C178.966 236.846 224.349 236.775 229.037 236.775H248.399C252.025 236.775 252.802 236.8 255.235 236.775C258.226 236.775 259.724 236.745 260.358 236.699C264.403 236.346 268.272 234.888 271.544 232.484C274.816 230.08 277.364 226.823 278.909 223.069C279.684 221.074 280.196 218.986 280.432 216.859C280.559 215.721 280.564 214.345 280.574 211.588C280.574 209.379 280.574 208.307 280.534 206.002C280.503 202.955 280.59 200.923 280.534 199.735C280.534 146.623 280.188 123.746 280.407 114.93C280.498 111.376 280.27 107.76 280.437 104.185C280.49 103.055 280.458 101.923 280.341 100.798C280.238 99.5907 280.001 98.3986 279.635 97.2434C279.298 96.2696 278.857 95.335 278.32 94.4555C277.05 92.2414 275.974 89.9207 274.806 87.6559C274.029 86.1324 273.099 84.3348 271.972 82.0699C268.235 74.6203 264.66 67.775 264.66 67.7699C264.204 67.0782 263.674 66.4379 263.08 65.8606C262.953 65.7692 262.811 65.6778 262.811 65.6778C262.453 65.4337 262.061 65.2438 261.648 65.1141C261.252 64.9999 260.842 64.9384 260.429 64.9313H242.661C242.661 64.9313 240.518 64.9313 239.833 64.9313C239.567 64.9714 239.312 65.0661 239.085 65.2094C238.858 65.3527 238.663 65.5416 238.512 65.7641C238.065 66.5461 238.411 67.7953 238.401 67.7953C238.39 67.7953 238.401 67.7496 238.401 67.7547C238.401 67.7598 240.762 81.6992 240.777 81.7754C240.792 81.8516 243.601 98.4926 243.621 98.6043Z" fill="white"/>
</g>
<defs>
<clipPath id="clip0_412_21">
<rect width="260" height="260" fill="white" transform="translate(96 20)"/>
</clipPath>
</defs>
</svg>
