<svg width="300" height="300" viewBox="0 0 300 300" fill="none" xmlns="http://www.w3.org/2000/svg">
<g clip-path="url(#clip0_412_21)">
<path d="M183.861 20.2641L33.4824 20.1828C29.9201 20.1828 26.5037 21.5979 23.9848 24.1168C21.4659 26.6358 20.0508 30.0521 20.0508 33.6144L20 266.599C20.0067 270.151 21.4208 273.556 23.9325 276.067C26.4443 278.579 29.849 279.993 33.4012 280L183.714 280.086C236.694 280.117 279.69 237.176 279.69 184.196L279.731 116.281C279.782 63.2859 236.836 20.2945 183.861 20.2641Z" fill="#483493"/>
<path d="M110.243 98.6043C110.243 102.418 110.198 111.091 110.198 111.091C109.994 112.481 109.704 113.856 109.329 115.21C108.915 116.487 108.362 117.715 107.679 118.871C105.824 121.827 103.144 124.175 99.9703 125.625C99.9703 125.625 96.3699 127.204 88.4227 127.214H87.6863C87.5307 127.206 87.3748 127.206 87.2191 127.214C87.0058 127.222 86.7942 127.256 86.5895 127.316C86.4066 127.368 86.2345 127.452 86.0816 127.565C85.9659 127.664 85.8664 127.78 85.7871 127.91C85.6461 128.12 85.5462 128.354 85.4926 128.601C85.4926 128.601 85.4926 148.263 85.4926 169.226C85.4926 181.362 85.4926 193.498 85.4926 205.631V214.949C85.5459 215.609 85.6358 216.265 85.7617 216.914C85.8945 217.533 86.1008 218.133 86.3762 218.702C87.1031 220.268 88.2077 221.629 89.5906 222.663C90.3705 223.268 91.2505 223.732 92.1906 224.034C93.1701 224.305 94.1706 224.494 95.1816 224.598H100.666C115.616 224.562 124.833 224.598 136.589 224.623C151.016 224.654 194.296 224.623 179.87 224.648C179.87 224.648 181.393 224.648 182.033 224.648C183.239 224.642 184.438 224.452 185.587 224.085C186.861 223.624 188.031 222.916 189.029 222.001C190.027 221.086 190.833 219.982 191.402 218.753C191.895 217.561 192.192 216.297 192.28 215.01V205.651C192.28 152.976 192.28 145.161 192.28 129.53V128.631C192.237 128.39 192.143 128.16 192.007 127.956C191.87 127.752 191.693 127.579 191.486 127.447C191.279 127.315 191.047 127.227 190.804 127.189C190.562 127.15 190.314 127.163 190.077 127.225C186.623 127.225 184.328 126.986 184.328 126.986C182.827 126.894 181.339 126.654 179.885 126.27C177.296 125.523 174.916 124.184 172.933 122.36C171.452 120.91 170.219 119.227 169.282 117.378C169.015 116.814 168.777 116.236 168.571 115.646C168.325 114.901 168.123 114.141 167.966 113.371C167.779 112.632 167.645 111.88 167.565 111.122C167.519 110.525 167.519 109.926 167.565 109.329V104.713C167.565 104.713 167.565 98.65 167.565 98.6195C164.732 81.4809 162.685 69.1664 162.345 67.8207C162.345 67.8207 161.979 66.3582 162.533 65.6727C162.651 65.5286 162.788 65.4005 162.939 65.2918C163.122 65.1605 163.329 65.0656 163.548 65.0125C163.716 64.9806 163.886 64.9602 164.056 64.9516H184.425C185.055 64.9538 185.676 65.0978 186.243 65.373C186.912 65.7206 187.493 66.2155 187.944 66.8203C188.295 67.2386 188.598 67.6951 188.848 68.1813C190.158 70.7203 198.72 87.5391 199.466 89.0016C200.213 90.4641 200.624 91.2563 200.69 91.3781C201.228 92.3938 202.95 95.5117 203.427 96.6898C203.473 96.7965 203.645 97.2332 203.823 97.7664C203.909 98.0102 203.965 98.198 204.021 98.391C204.097 98.6602 204.143 98.8684 204.158 98.9395C204.173 99.0105 204.255 99.3609 204.316 99.8027C204.374 100.239 204.409 100.678 204.422 101.118C204.422 101.118 204.422 114.28 204.397 127.707C204.397 130.977 204.397 139.148 204.397 140.631C204.397 140.631 204.397 165.874 204.554 201.436V215.279C204.554 215.279 204.356 217.6 204.092 219.118C203.818 220.643 203.36 222.128 202.726 223.541C201.029 227.295 198.363 230.528 195.002 232.911C192.902 234.29 190.609 235.35 188.198 236.059C187.279 236.313 186.821 236.389 186.821 236.389C186.161 236.501 184.364 236.739 184.359 236.739C184.359 236.739 183.211 236.79 180.956 236.805C174.995 236.841 129.616 236.77 124.924 236.77H105.45C101.829 236.77 101.047 236.795 98.6145 236.77C95.6234 236.77 94.1305 236.739 93.4957 236.694C89.4508 236.34 85.5809 234.882 82.3086 232.478C79.0362 230.075 76.4873 226.818 74.9402 223.064C74.1619 221.07 73.6497 218.982 73.4168 216.854C73.2898 215.716 73.2848 214.34 73.2695 211.582C73.2695 209.373 73.2695 208.302 73.3152 205.996C73.3406 202.95 73.2543 200.918 73.3152 199.73C73.3152 199.73 73.498 169.906 73.4066 104.17C73.3313 102.65 73.4147 101.127 73.6555 99.625C73.8057 98.6082 74.0592 97.6094 74.4121 96.6441C74.7332 95.8839 75.1047 95.1459 75.5242 94.4352C76.6008 92.1957 78.1242 89.55 81.877 82.0547C85.6094 74.6051 89.1895 67.7598 89.1895 67.7547C89.6419 67.0619 90.1698 66.4215 90.7637 65.8453L91.0379 65.6625C91.3932 65.4172 91.7835 65.2272 92.1957 65.0988C92.5922 64.9849 93.002 64.9235 93.4145 64.916H111.203C111.203 64.916 113.351 64.916 114.032 64.916C114.298 64.9552 114.552 65.0495 114.78 65.193C115.007 65.3364 115.202 65.5257 115.352 65.7488C115.799 66.5309 115.454 67.7801 115.464 67.7801C115.474 67.7801 115.464 67.7344 115.464 67.7395C115.464 67.7445 113.097 81.684 113.087 81.7602C113.077 81.8363 110.264 98.4926 110.243 98.6043Z" fill="white"/>
<path d="M157.465 97.5481C157.439 111.843 157.439 112.666 157.439 112.666C157.439 112.666 157.404 112.986 157.404 113.001C157.254 113.636 157.058 114.259 156.815 114.864C156.774 114.976 156.713 115.139 156.637 115.332C156.52 115.626 156.348 116.027 156.129 116.479C154.96 118.805 153.403 120.914 151.523 122.715C148.165 125.782 143.821 127.547 139.275 127.692C135.644 127.541 132.117 126.432 129.053 124.477C125.989 122.522 123.498 119.791 121.832 116.561C121.211 115.382 120.795 114.106 120.603 112.788C120.603 112.727 120.603 112.681 120.603 112.65V112.493C120.603 111.548 120.603 106.445 120.562 97.5988C122.355 87.2648 123.726 79.3633 124.625 74.0465C124.625 73.9652 125.858 66.9371 125.869 66.8609C126.054 66.2419 126.423 65.6933 126.925 65.2867C127.162 65.1355 127.426 65.0304 127.702 64.977C127.825 64.9624 127.949 64.9624 128.073 64.977H150.416C150.416 64.977 150.767 65.0379 150.98 65.1039C151.229 65.1625 151.46 65.283 151.65 65.4543C151.897 65.7404 152.051 66.0945 152.092 66.4699C152.542 69.0564 152.991 71.6428 153.438 74.2293C154.778 81.9988 156.121 89.7717 157.465 97.5481Z" fill="white"/>
<path d="M176.914 186.938C174.096 189.645 160.598 202.015 139.443 202.173C118.287 202.33 104.668 190.259 101.788 187.593C100.887 186.555 100.352 185.249 100.265 183.876C100.265 183.5 100.153 180.875 102.144 179.184C104.505 177.178 107.73 178.255 108.314 178.458C109.206 178.761 110.033 179.23 110.751 179.839C113.29 182.058 123.538 190.574 139.067 190.584C156.023 190.584 166.88 180.428 169.028 178.341C169.192 178.257 169.362 178.184 169.536 178.123C170.468 177.806 171.463 177.72 172.436 177.872C173.409 178.024 174.33 178.41 175.121 178.996C177.544 180.794 177.986 184.074 177.229 186.187C177.143 186.445 177.038 186.696 176.914 186.938Z" fill="white"/>
<path d="M167.621 98.6043C167.621 102.418 167.667 111.091 167.667 111.091C167.87 112.481 168.16 113.856 168.535 115.21C168.95 116.488 169.505 117.716 170.19 118.871C172.043 121.827 174.721 124.175 177.894 125.625C177.894 125.625 181.499 127.204 189.442 127.214H190.178C190.335 127.206 190.493 127.206 190.65 127.214C190.862 127.222 191.072 127.256 191.275 127.316C191.458 127.367 191.63 127.451 191.783 127.565C191.901 127.662 192.002 127.779 192.082 127.91C192.221 128.121 192.321 128.355 192.377 128.601C192.377 128.601 192.377 148.263 192.377 169.226C192.377 181.363 192.377 193.498 192.377 205.631V214.949C192.323 215.609 192.234 216.265 192.108 216.914C191.974 217.532 191.769 218.131 191.498 218.702C190.77 220.269 189.664 221.63 188.279 222.663C187.501 223.269 186.622 223.733 185.684 224.034C184.703 224.305 183.7 224.494 182.688 224.598H177.203C162.253 224.562 153.037 224.598 141.281 224.623C126.854 224.654 83.5779 224.623 97.9998 224.648C97.9998 224.648 96.4764 224.648 95.8416 224.648C94.6349 224.642 93.4363 224.452 92.2869 224.085C90.7322 223.518 89.3383 222.582 88.2244 221.358C87.5144 220.586 86.9316 219.707 86.4978 218.753C86.002 217.562 85.7052 216.297 85.6193 215.01V205.651C85.6193 152.976 85.6193 145.161 85.6193 129.53V128.631C85.6632 128.39 85.7563 128.161 85.8927 127.958C86.0292 127.754 86.2061 127.581 86.4124 127.449C86.6187 127.317 86.85 127.229 87.0919 127.19C87.3338 127.152 87.581 127.163 87.8182 127.225C91.2764 127.225 93.5717 126.986 93.5717 126.986C95.0728 126.894 96.5611 126.654 98.015 126.27C100.603 125.52 102.982 124.182 104.967 122.36C106.448 120.91 107.681 119.227 108.618 117.378C109.029 116.51 109.329 115.647 109.329 115.647C109.576 114.901 109.776 114.141 109.928 113.372C110.117 112.632 110.253 111.88 110.335 111.122C110.382 110.525 110.382 109.926 110.335 109.329V104.713C110.335 104.713 110.36 98.65 110.36 98.6196C113.188 81.4809 115.235 69.1664 115.575 67.8207C115.575 67.8207 115.941 66.3582 115.387 65.6727C115.27 65.5273 115.134 65.3991 114.981 65.2918C114.799 65.1585 114.592 65.0635 114.372 65.0125C114.204 64.9806 114.034 64.9602 113.864 64.9516H93.5311C92.8995 64.9541 92.2766 65.0981 91.708 65.3731C91.0388 65.7207 90.4572 66.2155 90.0068 66.8203C89.6563 67.2382 89.3548 67.6948 89.108 68.1813C87.7928 70.7203 79.2311 87.5391 78.4846 89.0016C77.7381 90.4641 77.3318 91.2563 77.2658 91.3781C76.7225 92.3938 75.001 95.5117 74.5236 96.6899C74.483 96.7965 74.3103 97.2332 74.1275 97.7664C74.0463 98.0102 73.9854 98.1981 73.9346 98.391C73.8584 98.6602 73.8076 98.8684 73.7924 98.9395C73.7771 99.0106 73.701 99.361 73.64 99.8028C73.5767 100.238 73.5411 100.678 73.5334 101.118C73.5334 101.118 73.5334 114.28 73.5334 127.707C73.5334 130.977 73.5334 139.148 73.5334 140.631C73.5334 140.631 73.5334 165.874 73.376 201.436V215.279C73.376 215.279 73.5689 217.6 73.833 219.118C74.1069 220.643 74.5657 222.128 75.199 223.541C76.9065 227.303 79.5891 230.54 82.9686 232.916C85.0693 234.295 87.3623 235.356 89.7732 236.064C90.6873 236.318 91.1443 236.394 91.1443 236.394C91.8045 236.506 93.6021 236.745 93.6072 236.745C93.6072 236.745 94.7498 236.795 97.0045 236.811C102.966 236.846 148.349 236.775 153.037 236.775H172.399C176.025 236.775 176.802 236.8 179.235 236.775C182.226 236.775 183.724 236.745 184.358 236.699C188.403 236.346 192.272 234.888 195.544 232.484C198.816 230.08 201.364 226.823 202.909 223.069C203.684 221.074 204.196 218.986 204.432 216.859C204.559 215.721 204.564 214.345 204.574 211.588C204.574 209.379 204.574 208.307 204.534 206.002C204.503 202.955 204.59 200.923 204.534 199.735C204.534 146.623 204.188 123.746 204.407 114.93C204.498 111.376 204.27 107.76 204.437 104.185C204.49 103.055 204.458 101.923 204.341 100.798C204.238 99.5907 204.001 98.3986 203.635 97.2434C203.298 96.2696 202.857 95.335 202.32 94.4555C201.05 92.2414 199.974 89.9207 198.806 87.6559C198.029 86.1324 197.099 84.3348 195.972 82.0699C192.235 74.6203 188.66 67.775 188.66 67.7699C188.204 67.0782 187.674 66.4379 187.08 65.8606C186.953 65.7692 186.811 65.6778 186.811 65.6778C186.453 65.4337 186.061 65.2438 185.648 65.1141C185.252 64.9999 184.842 64.9384 184.429 64.9313H166.661C166.661 64.9313 164.518 64.9313 163.833 64.9313C163.567 64.9714 163.312 65.0661 163.085 65.2094C162.858 65.3527 162.663 65.5416 162.512 65.7641C162.065 66.5461 162.411 67.7953 162.401 67.7953C162.39 67.7953 162.401 67.7496 162.401 67.7547C162.401 67.7598 164.762 81.6992 164.777 81.7754C164.792 81.8516 167.601 98.4926 167.621 98.6043Z" fill="white"/>
</g>
<defs>
<clipPath id="clip0_412_21">
<rect width="260" height="260" fill="white" transform="translate(20 20)"/>
</clipPath>
</defs>
</svg>
